{"title":"Judge Judy 04-01-2016","uid":13184673,"size":133350380,"categoryP":"video","categoryS":"tv_shows","magnet":"?xt=urn:btih:6c1034f49420a9acd838e9c41a13b444128af41d&amp;dn=Judge+Judy+04-01-2016&amp;tr=udp%3A%2F%2Ftracker.leechers-paradise.org%3A6969&amp;tr=udp%3A%2F%2Fzer0day.ch%3A1337&amp;tr=udp%3A%2F%2Fopen.demonii.com%3A1337&amp;tr=udp%3A%2F%2Ftracker.coppersurfer.tk%3A6969&amp;tr=udp%3A%2F%2Fexodus.desync.com%3A6969","seeders":0,"leechers":0,"uploader":null,"files":1,"time":1452365281,"description":"General\r\n\r\nFormat                                   : AVI\r\nFormat/Info                              : Audio Video Interleave\r\nFile size                                : 127 MiB\r\nDuration                                 : 20mn 11s\r\nOverall bit rate                         : 881 Kbps\r\n\r\nVideo\r\n\r\nID                                       : 0\r\nFormat                                   : AVC\r\nFormat/Info                              : Advanced Video Codec\r\nFormat profile                           :   \r\nFormat settings, CABAC                   : Yes\r\nFormat settings, ReFrames                : 1 frame\r\nCodec ID                                 : H264\r\nDuration                                 : 20mn 10s\r\nBit rate                                 : 775 Kbps\r\nWidth                                    : 640 pixels\r\nHeight                                   : 480 pixels\r\nDisplay aspect ratio                     : 4:3\r\nFrame rate                               : 25.000 fps\r\nColor space                              : YUV\r\nChroma subsampling                       : 4:2:0\r\nBit depth                                : 8 bits\r\nScan type                                : Progressive\r\nBits/(Pixel*Frame)                       : 0.101\r\nStream size                              : 112 MiB (88%)\r\n\r\nAudio\r\n\r\nID                                       : 1\r\nFormat                                   : MPEG Audio\r\nFormat version                           : Version 1\r\nFormat profile                           : Layer 3\r\nCodec ID                                 : 55\r\nCodec ID/Hint                            : MP3\r\nDuration                                 : 20mn 11s\r\nBit rate mode                            : Constant\r\nBit rate                                 : 96.0 Kbps\r\nChannel(s)                               : 2 channels\r\nSampling rate                            : 44.1 KHz\r\nCompression mode                         : Lossy\r\nStream size                              : 13.9 MiB (11%)\r\nAlignment                                : Split accross interleaves\r\nInterleave, duration                     : 40 ms (1.00 video frame)\r\nInterleave, preload duration             : 356 ms","torrent":{"xt":"urn:btih:6c1034f49420a9acd838e9c41a13b444128af41d","amp;dn":"Judge+Judy+04-01-2016","amp;tr":["udp%3A%2F%2Ftracker.leechers-paradise.org%3A6969","udp%3A%2F%2Fzer0day.ch%3A1337","udp%3A%2F%2Fopen.demonii.com%3A1337","udp%3A%2F%2Ftracker.coppersurfer.tk%3A6969","udp%3A%2F%2Fexodus.desync.com%3A6969"],"infoHash":"6c1034f49420a9acd838e9c41a13b444128af41d","infoHashBuffer":{"type":"Buffer","data":[108,16,52,244,148,32,169,172,216,56,233,196,26,19,180,68,18,138,244,29]},"announce":[],"urlList":[]}}